<svg width="13" height="18" viewBox="0 0 13 18" fill="none" xmlns="http://www.w3.org/2000/svg">
<path fill-rule="evenodd" clip-rule="evenodd" d="M12.5061 3.22023V2.57592C12.5059 2.37641 12.4404 2.18515 12.3241 2.0441C12.2077 1.90306 12.0499 1.82375 11.8854 1.82357H9.67165C9.67172 1.66014 9.64523 1.49829 9.59369 1.34728C9.54214 1.19627 9.46657 1.05906 9.37127 0.943495C9.27597 0.82793 9.16283 0.736276 9.0383 0.673773C8.91378 0.61127 8.78031 0.579143 8.64554 0.57923H4.14769C4.01282 0.578706 3.87919 0.610535 3.7545 0.672883C3.62982 0.735232 3.51653 0.826869 3.42116 0.942521C3.32579 1.05817 3.25023 1.19556 3.19881 1.34676C3.1474 1.49797 3.12115 1.66001 3.12158 1.82357H0.907804C0.826451 1.8237 0.745917 1.84327 0.670802 1.88115C0.595686 1.91903 0.527462 1.97449 0.470026 2.04436C0.412589 2.11423 0.367067 2.19713 0.336059 2.28834C0.305051 2.37955 0.289164 2.47727 0.289308 2.57592V3.22023C0.2892 3.31875 0.305126 3.41633 0.336174 3.50736C0.367221 3.5984 0.41278 3.68112 0.470237 3.75077C0.527695 3.82041 0.595922 3.87562 0.671009 3.91324C0.746095 3.95085 0.826564 3.97012 0.907804 3.96994H11.8857C11.967 3.97012 12.0476 3.95086 12.1228 3.91328C12.198 3.8757 12.2663 3.82052 12.3239 3.75091C12.3816 3.68129 12.4273 3.59859 12.4585 3.50754C12.4898 3.41649 12.506 3.31886 12.5061 3.22023ZM11.5502 15.1205V5.36635H1.24552V15.1205C1.24552 16.4336 2.14738 17.4965 3.26449 17.4965H9.53119C10.645 17.4965 11.5502 16.4336 11.5502 15.1205Z" fill="#FF0000"/>
</svg>
