<svg width="13" height="13" viewBox="0 0 13 13" fill="none" xmlns="http://www.w3.org/2000/svg">
<path fill-rule="evenodd" clip-rule="evenodd" d="M10.6146 2.33372C10.021 1.74016 9.05863 1.74016 8.46511 2.33372L7.32518 3.47365C7.02834 3.77042 6.54722 3.77042 6.25043 3.47365C5.95365 3.17686 5.95365 2.6957 6.25043 2.39891L7.39038 1.25899C8.5775 0.0718741 10.5022 0.0718741 11.6893 1.25899C12.8764 2.44611 12.8764 4.37081 11.6893 5.55793L9.40942 7.83776C8.2223 9.02488 6.29762 9.02488 5.1105 7.83776C4.81372 7.541 4.81372 7.0598 5.1105 6.76304C5.40728 6.46628 5.88843 6.46628 6.18521 6.76304C6.77877 7.35663 7.7411 7.35663 8.3347 6.76304L10.6146 4.4832C11.2081 3.88964 11.2081 2.92728 10.6146 2.33372ZM6.81479 6.13348C6.22125 5.53992 5.25888 5.53992 4.66533 6.13348L2.38548 8.41335C1.79192 9.00687 1.79192 9.96927 2.38548 10.5628C2.97904 11.1564 3.94139 11.1564 4.53495 10.5628L5.67488 9.42287C5.97167 9.12611 6.45283 9.12611 6.74959 9.42287C7.04643 9.71963 7.04643 10.2008 6.74959 10.4976L5.60969 11.6375C4.42257 12.8246 2.49787 12.8246 1.31075 11.6375C0.123632 10.4504 0.123632 8.52574 1.31075 7.33862L3.5906 5.05875C4.77772 3.87163 6.7024 3.87163 7.88952 5.05875C8.18635 5.35553 8.18635 5.83669 7.88952 6.13348C7.59276 6.43025 7.11156 6.43025 6.81479 6.13348Z" fill="white" fill-opacity="0.6"/>
</svg>
