<svg width="21" height="20" viewBox="0 0 21 20" fill="none" xmlns="http://www.w3.org/2000/svg">
<path d="M11.84 5.90889C9.28257 5.90889 7.20202 3.82827 7.20202 1.27093C7.20202 0.798924 6.81936 0.41626 6.34735 0.41626C5.87535 0.41626 5.49268 0.798924 5.49268 1.27093C5.49268 3.82833 3.41207 5.90889 0.85467 5.90889C0.853303 5.90889 0.851878 5.90889 0.85051 5.90889C0.380442 5.91111 0 6.29292 0 6.76356C0 7.23419 0.380442 7.616 0.85051 7.61823H0.85467C3.41213 7.61823 5.49268 9.69884 5.49268 12.2562C5.49268 12.7282 5.87535 13.1109 6.34735 13.1109C6.81936 13.1109 7.20202 12.7282 7.20202 12.2562C7.20202 9.69878 9.28263 7.61823 11.84 7.61823C12.312 7.61823 12.6947 7.23556 12.6947 6.76356C12.6947 6.29155 12.3121 5.90889 11.84 5.90889Z" fill="#E11C57"/>
<path d="M19.9614 9.59946C18.0809 9.59946 16.5511 8.06959 16.5511 6.18917C16.5511 5.8421 16.2697 5.56073 15.9226 5.56073C15.5756 5.56073 15.2942 5.8421 15.2942 6.18917C15.2942 8.06963 13.7643 9.59946 11.8839 9.59946C11.8829 9.59946 11.8818 9.59946 11.8808 9.59946C11.5352 9.6011 11.2554 9.88184 11.2554 10.2279C11.2554 10.574 11.5352 10.8547 11.8808 10.8563H11.8839C13.7644 10.8563 15.2942 12.3862 15.2942 14.2666C15.2942 14.6137 15.5756 14.8951 15.9226 14.8951C16.2697 14.8951 16.5511 14.6137 16.5511 14.2666C16.5511 12.3862 18.081 10.8563 19.9614 10.8563C20.3085 10.8563 20.5899 10.575 20.5899 10.2279C20.5899 9.88084 20.3085 9.59946 19.9614 9.59946Z" fill="#2660D2"/>
<path d="M13.3047 15.1305C11.6965 15.1305 10.3882 13.8222 10.3882 12.214C10.3882 11.9172 10.1476 11.6766 9.85075 11.6766C9.55393 11.6766 9.3133 11.9172 9.3133 12.214C9.3133 13.8222 8.00494 15.1305 6.39676 15.1305C6.3959 15.1305 6.395 15.1305 6.39414 15.1305C6.09855 15.1319 5.85931 15.372 5.85931 15.668C5.85931 15.9639 6.09855 16.204 6.39414 16.2054H6.39676C8.00498 16.2054 9.3133 17.5138 9.3133 19.1219C9.3133 19.4188 9.55393 19.6594 9.85075 19.6594C10.1476 19.6594 10.3882 19.4188 10.3882 19.1219C10.3882 17.5138 11.6966 16.2054 13.3047 16.2054C13.6015 16.2054 13.8422 15.9648 13.8422 15.668C13.8422 15.3712 13.6016 15.1305 13.3047 15.1305Z" fill="#DC9120"/>
</svg>
