<svg width="13" height="13" viewBox="0 0 13 13" fill="none" xmlns="http://www.w3.org/2000/svg">
<path opacity="0.6" fill-rule="evenodd" clip-rule="evenodd" d="M7.18142 5.86199C7.18159 5.86229 11.2908 3.49089 11.2908 3.49089C11.5132 3.36254 11.5372 3.1498 11.5372 3.06431C11.5372 2.97882 11.5132 2.76613 11.2908 2.63783L7.06544 0.199969C6.8911 0.0993878 6.69561 0.0490723 6.50014 0.0490723C6.30467 0.0490723 6.10918 0.0993878 5.93484 0.199969L1.70947 2.63781C1.4871 2.76613 1.46308 2.97882 1.46308 3.06431C1.46308 3.1498 1.48707 3.36254 1.70947 3.49089L5.81869 5.86227C5.82043 5.86295 5.822 5.86388 5.82359 5.86482L5.82494 5.86561C6.24214 6.10348 6.75822 6.1035 7.17544 5.86558L7.17771 5.86421C7.17893 5.86346 7.18016 5.86271 7.18142 5.86199ZM12.1607 4.14306C12.0866 4.10033 11.8902 4.01471 11.6678 4.14306C11.6678 4.14294 7.55839 6.51442 7.55839 6.51442L7.55617 6.51567L7.54982 6.51916C7.13461 6.76281 6.87704 7.21173 6.87704 7.69332V12.443C6.87704 12.6999 7.04959 12.827 7.12376 12.8698C7.18929 12.9075 7.35031 12.9783 7.54025 12.9057L11.8418 10.4239C12.1905 10.2227 12.4071 9.84782 12.4071 9.44545V4.56961C12.4071 4.31297 12.2348 4.18582 12.1607 4.14306ZM5.4418 6.51444C5.44464 6.51607 5.44753 6.51758 5.45039 6.51921C5.86555 6.76285 6.1231 7.21175 6.12307 7.69331V12.443C6.12307 12.6999 5.95054 12.827 5.87635 12.8698C5.81083 12.9075 5.64975 12.9783 5.45979 12.9057L1.15832 10.4239C0.809641 10.2227 0.593018 9.84779 0.593018 9.44544V4.56959C0.593018 4.31296 0.765372 4.18579 0.839464 4.14306C0.913556 4.10033 1.10993 4.01478 1.33238 4.14293L5.4418 6.51444Z" fill="white"/>
</svg>
