<svg width="15" height="18" viewBox="0 0 15 18" fill="none" xmlns="http://www.w3.org/2000/svg">
<path d="M8.44083 16.4182C8.44083 16.8711 8.07367 17.2382 7.62079 17.2382H3.52062C1.71199 17.2382 0.240479 15.7667 0.240479 13.9581V4.11766C0.240479 2.30904 1.71199 0.837524 3.52062 0.837524H7.62079C8.07364 0.837524 8.44083 1.20468 8.44083 1.65756C8.44083 2.11044 8.07367 2.47759 7.62079 2.47759H3.52062C2.61611 2.47759 1.88055 3.21313 1.88055 4.11766V13.9581C1.88055 14.8626 2.61611 15.5982 3.52062 15.5982H7.62079C8.07367 15.5982 8.44083 15.9653 8.44083 16.4182ZM14.9378 9.35125C15.0207 9.15075 15.0207 8.92502 14.9378 8.7245C14.8962 8.62414 14.8363 8.53339 14.7606 8.45783L11.4807 5.17794C11.1604 4.85762 10.6415 4.85762 10.3211 5.17794C10.0008 5.49827 10.0008 6.0172 10.3211 6.33752L12.2015 8.21784H5.98072C5.52788 8.21784 5.16069 8.58503 5.16069 9.03787C5.16069 9.49075 5.52788 9.85791 5.98072 9.85791H12.2015L10.3211 11.7382C10.0008 12.0585 10.0008 12.5775 10.3211 12.8978C10.4813 13.058 10.6911 13.138 10.9009 13.138C11.1107 13.138 11.3206 13.058 11.4807 12.8978L14.7606 9.61792C14.8363 9.54232 14.8962 9.4516 14.9378 9.35125Z" fill="black"/>
</svg>
