<svg width="18" height="9" viewBox="0 0 18 9" fill="none" xmlns="http://www.w3.org/2000/svg">
<path opacity="0.6" fill-rule="evenodd" clip-rule="evenodd" d="M4.72529 0.647103C5.0078 0.164507 5.71403 0.164507 5.99652 0.647103L8.94977 5.69207L10.6096 2.89193C10.8168 2.54236 11.3348 2.54236 11.542 2.89193L14.5724 8.00418C14.7796 8.35375 14.5206 8.79066 14.1062 8.79066H9.49241H8.04546H1.22942C0.664428 8.79066 0.31132 8.18745 0.593806 7.70485L4.72529 0.647103ZM15.7232 4.38743C16.7075 4.38743 17.5054 3.60051 17.5054 2.62975C17.5054 1.65904 16.7075 0.872076 15.7232 0.872076C14.739 0.872076 13.9411 1.65904 13.9411 2.62975C13.9411 3.60051 14.739 4.38743 15.7232 4.38743Z" fill="white"/>
</svg>
